HIERARCHY
ROOT hip
{
  OFFSET 0 0 0
  CHANNELS 6 Xposition Yposition Zposition Zrotation Yrotation Xrotation
  JOINT abdomen
  {
    OFFSET 0 20.6881 -0.73152
    CHANNELS 3 Zrotation Xrotation Yrotation
    JOINT chest
    {
      OFFSET 0 11.7043 -0.48768
      CHANNELS 3 Zrotation Xrotation Yrotation
      JOINT neck
      {
        OFFSET 0 22.1894 -2.19456
        CHANNELS 3 Zrotation Xrotation Yrotation
        JOINT head
        {
          OFFSET -0.24384 7.07133 1.2192
          CHANNELS 3 Zrotation Xrotation Yrotation
          JOINT leftEye
          {
            OFFSET 4.14528 8.04674 8.04672
            CHANNELS 3 Zrotation Xrotation Yrotation
            End Site
            {
              OFFSET 1 0 0
            }
          }
          JOINT rightEye
          {
            OFFSET -3.6576 8.04674 8.04672
            CHANNELS 3 Zrotation Xrotation Yrotation
            End Site
            {
              OFFSET 1 0 0
            }
          }
        }
      }
      JOINT rCollar
      {
        OFFSET -2.68224 19.2634 -4.8768
        CHANNELS 3 Zrotation Xrotation Yrotation
        JOINT rShldr
        {
          OFFSET -8.77824 -1.95073 1.46304
          CHANNELS 3 Zrotation Xrotation Yrotation
          JOINT rForeArm
          {
            OFFSET -28.1742 -1.7115 0.48768
            CHANNELS 3 Zrotation Xrotation Yrotation
            JOINT rHand
            {
              OFFSET -22.5879 0.773209 7.07136
              CHANNELS 3 Zrotation Xrotation Yrotation
              JOINT rThumb1
              {
                OFFSET -1.2192 -0.487915 3.41376
                CHANNELS 3 Zrotation Xrotation Yrotation
                JOINT rThumb2
                {
                  OFFSET -3.37035 -0.52449 3.41376
                  CHANNELS 3 Zrotation Xrotation Yrotation
                  End Site
                  {
                    OFFSET -1.78271 -1.18214 1.43049
                  }
                }
              }
              JOINT rIndex1
              {
                OFFSET -7.75947 0.938293 5.60832
                CHANNELS 3 Zrotation Xrotation Yrotation
                JOINT rIndex2
                {
                  OFFSET -2.54057 -0.884171 1.56538
                  CHANNELS 3 Zrotation Xrotation Yrotation
                  End Site
                  {
                    OFFSET -1.62519 -0.234802 1.16502
                  }
                }
              }
              JOINT rMid1
              {
                OFFSET -8.24714 1.18213 3.41376
                CHANNELS 3 Zrotation Xrotation Yrotation
                JOINT rMid2
                {
                  OFFSET -3.10165 -0.590103 1.0647
                  CHANNELS 3 Zrotation Xrotation Yrotation
                  End Site
                  {
                    OFFSET -2.48547 -0.328903 0.83742
                  }
                }
              }
              JOINT rRing1
              {
                OFFSET -8.82822 0.546677 1.51678
                CHANNELS 3 Zrotation Xrotation Yrotation
                JOINT rRing2
                {
                  OFFSET -2.60934 -0.819778 -0.0198488
                  CHANNELS 3 Zrotation Xrotation Yrotation
                  End Site
                  {
                    OFFSET -2.33842 -0.294052 0.168128
                  }
                }
              }
              JOINT rPinky1
              {
                OFFSET -8.27202 -0.0477905 -0.4584
                CHANNELS 3 Zrotation Xrotation Yrotation
                JOINT rPinky2
                {
                  OFFSET -1.82734 -0.647385 -0.700984
                  CHANNELS 3 Zrotation Xrotation Yrotation
                  End Site
                  {
                    OFFSET -1.69225 -0.51767 -0.607171
                  }
                }
              }
            }
          }
        }
      }
      JOINT lCollar
      {
        OFFSET 2.68224 19.2634 -4.8768
        CHANNELS 3 Zrotation Xrotation Yrotation
        JOINT lShldr
        {
          OFFSET 8.77824 -1.95073 1.46304
          CHANNELS 3 Zrotation Xrotation Yrotation
          JOINT lForeArm
          {
            OFFSET 28.1742 -1.7115 0.48768
            CHANNELS 3 Zrotation Xrotation Yrotation
            JOINT lHand
            {
              OFFSET 22.5879 0.773209 7.07136
              CHANNELS 3 Zrotation Xrotation Yrotation
              JOINT lThumb1
              {
                OFFSET 1.2192 -0.487915 3.41376
                CHANNELS 3 Zrotation Xrotation Yrotation
                JOINT lThumb2
                {
                  OFFSET 3.37035 -0.52449 3.41376
                  CHANNELS 3 Zrotation Xrotation Yrotation
                  End Site
                  {
                    OFFSET 1.78271 -1.18214 1.43049
                  }
                }
              }
              JOINT lIndex1
              {
                OFFSET 7.75947 0.938293 5.60832
                CHANNELS 3 Zrotation Xrotation Yrotation
                JOINT lIndex2
                {
                  OFFSET 2.54057 -0.884171 1.56538
                  CHANNELS 3 Zrotation Xrotation Yrotation
                  End Site
                  {
                    OFFSET 1.62519 -0.234802 1.16502
                  }
                }
              }
              JOINT lMid1
              {
                OFFSET 8.24714 1.18213 3.41376
                CHANNELS 3 Zrotation Xrotation Yrotation
                JOINT lMid2
                {
                  OFFSET 3.10165 -0.590103 1.0647
                  CHANNELS 3 Zrotation Xrotation Yrotation
                  End Site
                  {
                    OFFSET 2.48547 -0.328903 0.83742
                  }
                }
              }
              JOINT lRing1
              {
                OFFSET 8.82822 0.546677 1.51678
                CHANNELS 3 Zrotation Xrotation Yrotation
                JOINT lRing2
                {
                  OFFSET 2.60934 -0.819778 -0.0198488
                  CHANNELS 3 Zrotation Xrotation Yrotation
                  End Site
                  {
                    OFFSET 2.33842 -0.294052 0.168128
                  }
                }
              }
              JOINT lPinky1
              {
                OFFSET 8.27202 -0.0477905 -0.4584
                CHANNELS 3 Zrotation Xrotation Yrotation
                JOINT lPinky2
                {
                  OFFSET 1.82734 -0.647385 -0.700984
                  CHANNELS 3 Zrotation Xrotation Yrotation
                  End Site
                  {
                    OFFSET 1.69225 -0.51767 -0.607171
                  }
                }
              }
            }
          }
        }
      }
    }
  }
  JOINT rButtock
  {
    OFFSET -8.77824 4.35084 1.2192
    CHANNELS 3 Zrotation Xrotation Yrotation
    JOINT rThigh
    {
      OFFSET 0 -1.70687 -2.19456
      CHANNELS 3 Zrotation Xrotation Yrotation
      JOINT rShin
      {
        OFFSET 0 -36.8199 0.73152
        CHANNELS 3 Zrotation Xrotation Yrotation
        JOINT rFoot
        {
          OFFSET 0.73152 -45.1104 -5.12064
          CHANNELS 3 Zrotation Xrotation Yrotation
          End Site
          {
            OFFSET -1.1221 -3.69964 12.103
          }
        }
      }
    }
  }
  JOINT lButtock
  {
    OFFSET 8.77824 4.35084 1.2192
    CHANNELS 3 Zrotation Xrotation Yrotation
    JOINT lThigh
    {
      OFFSET 0 -1.70687 -2.19456
      CHANNELS 3 Zrotation Xrotation Yrotation
      JOINT lShin
      {
        OFFSET 0 -36.8199 0.73152
        CHANNELS 3 Zrotation Xrotation Yrotation
        JOINT lFoot
        {
          OFFSET -0.73152 -45.1104 -5.12064
          CHANNELS 3 Zrotation Xrotation Yrotation
          End Site
          {
            OFFSET 1.1221 -3.69964 12.103
          }
        }
      }
    }
  }
}
MOTION
Frames:	9
Frame Time:	0.00833333
-202.924 78.4126 96.375 0.0 0.0 0.0 -3.1312 0.00208551 -0.0845031 -0.863229 0.0181966 -0.149331 1.4407e-14 -7.95139e-16 -1.2424e-15 4.42327e-14 3.18055e-15 -3.63093e-15 -0.0 0.0 0.0 -0.0 0.0 0.0 7.50425e-15 2.10044e-16 -2.48481e-16 1.57777e-13 4.42296e-15 -1.17283e-14 2.69632e-12 -6.29153e-13 -2.76708e-13 3.05974e-11 1.64248e-12 -2.55717e-12 7.22077e-11 2.19963e-12 -6.14165e-12 1.24688e-10 3.79758e-12 -1.06183e-11 7.22117e-11 2.20134e-12 -6.15119e-12 7.73091 5.47488 0.417314 7.22065e-11 2.19925e-12 -6.13529e-12 2.90554 0.965183 0.102902 7.22106e-11 2.19975e-12 -6.14642e-12 10.2786 0.731801 0.0259123 7.22004e-11 2.20253e-12 -6.14165e-12 2.22167 -0.733487 -0.20892 7.40508e-15 2.12373e-16 -6.4605e-16 1.53221e-13 4.7522e-15 -1.33186e-14 2.66088e-12 9.57148e-13 -2.67167e-13 3.0601e-11 6.11511e-14 -2.5508e-12 7.21457e-11 2.2075e-12 -6.13847e-12 1.24604e-10 3.81667e-12 -1.05928e-11 7.21421e-11 2.20929e-12 -6.12893e-12 -7.73091 5.47488 -0.417314 7.21452e-11 2.20721e-12 -6.14483e-12 -2.90554 0.965183 -0.102902 7.21376e-11 2.2075e-12 -6.13847e-12 -10.2786 0.731801 -0.0259123 7.21523e-11 2.21009e-12 -6.14483e-12 -2.22167 -0.733487 0.20892 -2.03217e-16 0.0 -3.88251e-19 -1.91872 -1.93503 0.0146235 -0.00850113 -2.07867 -0.0697656 -0.458731 4.00011 0.132469 2.03217e-16 0.0 3.88251e-19 -2.83816 -9.32627 0.32235 -0.00902535 11.3079 -0.235084 0.527277 -1.9951 -0.0183537
-200.303 75.7395 85.5772 170.989 43.8067 179.208 -8.26328 4.51633 3.12951 -0.735613 0.284436 0.667361 -4.27504 2.24385 -2.66928 9.9399 -11.9864 -0.48353 -0.0 0.0 0.0 -0.0 0.0 0.0 1.75791e-13 4.28138e-14 -2.7094e-13 24.7873 17.8007 2.54476 -14.0233 -11.1453 14.2477 0.204724 -10.0897 -1.34053 6.15406e-11 8.66199e-10 1.32435e-09 7.29155e-11 1.56393e-09 2.28529e-09 6.15443e-11 8.662e-10 1.32433e-09 7.73091 5.47488 0.417314 6.15401e-11 8.66198e-10 1.32435e-09 2.90554 0.965183 0.102902 6.15457e-11 8.66198e-10 1.32434e-09 10.2786 0.731801 0.0259123 6.15361e-11 8.662e-10 1.32434e-09 2.22167 -0.733487 -0.20892 1.75656e-13 4.28213e-14 -2.7128e-13 -22.0857 8.94829 0.986738 22.7657 -20.6392 -14.9294 -4.01908 46.9929 -0.456937 3.22206e-10 -1.39315e-09 -3.83944e-11 4.90228e-10 -2.28941e-09 -1.22182e-10 3.22202e-10 -1.39315e-09 -3.83879e-11 -7.73091 5.47488 -0.417314 3.22205e-10 -1.39315e-09 -3.8399e-11 -2.90554 0.965183 -0.102902 3.22199e-10 -1.39315e-09 -3.83941e-11 -10.2786 0.731801 -0.0259123 3.22211e-10 -1.39314e-09 -3.83997e-11 -2.22167 -0.733487 0.20892 -2.03217e-16 0.0 -3.88251e-19 -7.31143 -10.657 -7.81071 0.0599355 17.748 0.205066 -1.41705 -1.75712 -5.14769 2.03217e-16 0.0 3.88251e-19 -0.712343 -10.9424 4.48752 -0.0360519 20.6956 -0.421266 1.43501 -4.33151 6.49796
-199.553 75.6459 85.4474 170.823 43.9439 178.893 -14.2517 9.23966 6.62757 -0.609891 0.561178 1.54083 -8.58194 4.61773 -5.54105 20.252 -24.7162 -1.10634 -0.0 0.0 0.0 -0.0 0.0 0.0 3.69254e-13 8.7352e-14 -5.87499e-13 48.8531 36.625 6.29542 -22.7196 -20.5448 30.8932 -0.126151 -20.8196 -2.91512 5.13533e-11 1.87336e-09 2.84915e-09 1.74031e-11 3.3801e-09 4.91653e-09 5.13568e-11 1.87336e-09 2.84913e-09 7.73091 5.47488 0.417314 5.13536e-11 1.87336e-09 2.84914e-09 2.90554 0.965183 0.102902 5.13611e-11 1.87336e-09 2.84914e-09 10.2786 0.731801 0.0259123 5.1352e-11 1.87336e-09 2.84914e-09 2.22167 -0.733487 -0.20892 3.69081e-13 8.73654e-14 -5.87775e-13 -45.7378 18.3321 2.14137 33.1806 -37.4513 -37.2026 165.681 83.2462 -174.6 6.14126e-10 -2.99358e-09 -7.90439e-11 9.17491e-10 -4.92078e-09 -2.5643e-10 6.14122e-10 -2.99358e-09 -7.9041e-11 -7.73091 5.47488 -0.417314 6.14126e-10 -2.99357e-09 -7.90467e-11 -2.90554 0.965183 -0.102902 6.1412e-10 -2.99358e-09 -7.90434e-11 -10.2786 0.731801 -0.0259123 6.14131e-10 -2.99357e-09 -7.90481e-11 -2.22167 -0.733487 0.20892 -2.03217e-16 0.0 -3.88251e-19 -15.6436 -19.241 -16.7925 -0.123094 38.7304 0.609743 -3.59033 -7.76598 -10.8115 2.03217e-16 0.0 3.88251e-19 1.7776 -12.6328 8.92654 0.0151497 30.6411 -0.656305 2.9652 -6.66381 13.417
-198.77 75.528 85.2867 170.657 44.2637 178.613 -20.0746 13.3743 9.79656 -0.503146 0.816314 2.30096 -12.1965 6.67295 -8.05663 29.0917 -35.9478 -1.75287 -0.0 0.0 0.0 -0.0 0.0 0.0 5.12365e-13 1.28021e-13 -8.12323e-13 67.0111 52.8349 12.0891 -25.8615 -24.9052 47.4425 -0.989634 -30.1974 -4.58227 4.02062e-11 2.5942e-09 3.98532e-09 -3.06303e-11 4.68419e-09 6.87712e-09 4.02096e-11 2.5942e-09 3.9853e-09 7.73091 5.47488 0.417314 4.02072e-11 2.5942e-09 3.98531e-09 2.90554 0.965183 0.102902 4.0216e-11 2.5942e-09 3.98531e-09 10.2786 0.731801 0.0259123 4.02074e-11 2.5942e-09 3.98531e-09 2.22167 -0.733487 -0.20892 5.12158e-13 1.28039e-13 -8.12547e-13 -67.2759 26.811 3.27676 30.7035 -41.9778 -63.8349 166.183 39.0124 -178.797 8.22326e-10 -4.18386e-09 -1.02906e-10 1.22148e-09 -6.87587e-09 -3.4536e-10 8.22321e-10 -4.18385e-09 -1.02906e-10 -7.73091 5.47488 -0.417314 8.22325e-10 -4.18385e-09 -1.02907e-10 -2.90554 0.965183 -0.102902 8.2232e-10 -4.18386e-09 -1.02905e-10 -10.2786 0.731801 -0.0259123 8.2233e-10 -4.18385e-09 -1.02909e-10 -2.22167 -0.733487 0.20892 -2.03217e-16 0.0 -3.88251e-19 -25.6886 -25.9471 -25.8178 -0.754826 57.3945 1.34621 -6.53544 -12.7884 -16.1102 2.03217e-16 0.0 3.88251e-19 4.25485 -13.923 12.9685 0.149342 39.4685 -0.93425 4.82319 -8.56406 19.7033
-197.999 75.3937 85.0854 170.457 44.6348 178.369 -24.3564 16.2083 11.9098 -0.427922 1.01803 2.7775 -14.5457 7.99193 -9.63203 34.9001 -43.4485 -2.11859 -0.0 0.0 0.0 -0.0 0.0 0.0 5.29596e-13 1.59018e-13 -8.07811e-13 76.2966 63.0571 18.9768 -26.5571 -24.9572 59.2141 -1.93982 -36.267 -5.91845 2.66595e-11 2.59923e-09 4.14992e-09 -5.99662e-11 4.70806e-09 7.1611e-09 2.66634e-11 2.59923e-09 4.14989e-09 7.73091 5.47488 0.417314 2.66608e-11 2.59923e-09 4.1499e-09 2.90554 0.965183 0.102902 2.667e-11 2.59923e-09 4.14991e-09 10.2786 0.731801 0.0259123 2.66616e-11 2.59923e-09 4.14991e-09 2.22167 -0.733487 -0.20892 5.29365e-13 1.59036e-13 -8.0801e-13 -82.7476 33.0637 4.05769 28.3491 -37.8014 -80.0652 163.912 8.44143 -178.805 8.21222e-10 -4.34876e-09 -8.48e-11 1.21727e-09 -7.14025e-09 -3.20995e-10 8.21217e-10 -4.34876e-09 -8.48e-11 -7.73091 5.47488 -0.417314 8.21222e-10 -4.34875e-09 -8.48e-11 -2.90554 0.965183 -0.102902 8.21218e-10 -4.34876e-09 -8.47992e-11 -10.2786 0.731801 -0.0259123 8.21226e-10 -4.34876e-09 -8.48031e-11 -2.22167 -0.733487 0.20892 -2.03217e-16 0.0 -3.88251e-19 -34.515 -29.9931 -32.7754 -2.04315 70.2662 2.66171 -9.10631 -15.8369 -20.0381 2.03217e-16 0.0 3.88251e-19 6.15441 -14.4218 15.8903 0.310948 45.5027 -1.20229 6.42087 -9.77449 24.2601
-197.274 75.1882 84.8592 170.122 44.9681 178.04 -25.9987 17.3415 12.4105 -0.393551 1.15228 2.86426 -15.3602 8.34153 -9.8671 36.9985 -45.7549 -1.75177 -0.0 0.0 0.0 -0.0 0.0 0.0 3.37243e-13 1.74611e-13 -4.19087e-13 80.9744 65.6198 20.3354 -26.773 -24.3281 63.8218 -2.24897 -37.6033 -6.27029 4.84814e-12 1.35974e-09 2.66522e-09 -6.51503e-11 2.50957e-09 4.59876e-09 4.85329e-12 1.35975e-09 2.6652e-09 7.73091 5.47488 0.417314 4.84937e-12 1.35974e-09 2.66521e-09 2.90554 0.965183 0.102902 4.85712e-12 1.35974e-09 2.66522e-09 10.2786 0.731801 0.0259123 4.84849e-12 1.35974e-09 2.66522e-09 2.22167 -0.733487 -0.20892 3.36998e-13 1.74623e-13 -4.19304e-13 -89.3173 36.2108 4.12595 28.3021 -34.6955 -84.3236 163.056 -2.72005 -178.609 4.65304e-10 -2.80234e-09 3.20307e-11 6.91009e-10 -4.57861e-09 -6.18398e-11 4.65299e-10 -2.80234e-09 3.20344e-11 -7.73091 5.47488 -0.417314 4.65304e-10 -2.80233e-09 3.20311e-11 -2.90554 0.965183 -0.102902 4.65299e-10 -2.80234e-09 3.20314e-11 -10.2786 0.731801 -0.0259123 4.65306e-10 -2.80233e-09 3.20266e-11 -2.22167 -0.733487 0.20892 -2.03217e-16 0.0 -3.88251e-19 -39.144 -31.8461 -35.59 -3.12603 75.0675 3.7444 -10.1082 -16.4355 -21.7511 2.03217e-16 0.0 3.88251e-19 7.01397 -13.9455 17.1928 0.385601 47.6189 -1.35818 7.19588 -10.2816 26.3039
-196.422 75.0187 84.5893 170.072 45.3273 177.861 -25.6434 17.2882 11.7143 -0.386018 1.23812 2.6722 -15.1073 8.0044 -9.13816 36.4614 -44.345 -0.834732 -0.0 0.0 0.0 -0.0 0.0 0.0 -3.22534e-15 1.7929e-13 2.41067e-13 84.6311 62.8987 15.5196 -26.8143 -24.6189 63.7301 -1.94898 -35.5803 -5.8082 -2.26329e-11 -7.57149e-10 1.62279e-11 -5.29867e-11 -1.25585e-09 2.71034e-11 -2.2626e-11 -7.57144e-10 1.6207e-11 7.73091 5.47488 0.417314 -2.26321e-11 -7.57153e-10 1.6217e-11 2.90554 0.965183 0.102902 -2.26271e-11 -7.57153e-10 1.62252e-11 10.2786 0.731801 0.0259123 -2.26362e-11 -7.57152e-10 1.62299e-11 2.22167 -0.733487 -0.20892 -3.4746e-15 1.7929e-13 2.40803e-13 -89.4023 37.1458 3.59346 28.3193 -34.5569 -82.8383 163.148 -0.0319705 -178.433 -1.41112e-10 -4.6672e-11 2.17476e-10 -2.03832e-10 -2.02418e-11 3.61395e-10 -1.41116e-10 -4.66778e-11 2.17486e-10 -7.73091 5.47488 -0.417314 -1.41112e-10 -4.66702e-11 2.17476e-10 -2.90554 0.965183 -0.102902 -1.41118e-10 -4.66733e-11 2.17476e-10 -10.2786 0.731801 -0.0259123 -1.41111e-10 -4.66696e-11 2.1747e-10 -2.22167 -0.733487 0.20892 -2.03217e-16 0.0 -3.88251e-19 -40.1588 -32.5944 -35.1112 -2.86832 74.1151 3.4851 -9.76058 -15.3964 -21.8014 2.03217e-16 0.0 3.88251e-19 7.09567 -12.8008 17.3359 0.353916 46.9376 -1.39659 7.2766 -10.3654 26.5329
-195.533 74.8382 84.3479 170.205 45.8358 177.761 -24.4499 16.7514 10.4989 -0.382207 1.29359 2.35684 -14.3479 7.35291 -8.01356 34.5418 -41.4098 0.156533 -0.0 0.0 0.0 -0.0 0.0 0.0 -3.49576e-13 1.82584e-13 9.08767e-13 85.7254 57.9873 10.1493 -26.8269 -25.406 61.8449 -1.52016 -32.465 -5.13825 -4.45337e-11 -2.83716e-09 -2.63595e-09 -3.06443e-11 -4.95993e-09 -4.54978e-09 -4.45246e-11 -2.83715e-09 -2.63597e-09 7.73091 5.47488 0.417314 -4.45333e-11 -2.83717e-09 -2.63596e-09 2.90554 0.965183 0.102902 -4.45311e-11 -2.83717e-09 -2.63595e-09 10.2786 0.731801 0.0259123 -4.45407e-11 -2.83716e-09 -2.63594e-09 2.22167 -0.733487 -0.20892 -3.49823e-13 1.82572e-13 9.08451e-13 -86.8352 37.2166 2.74568 28.3556 -35.4987 -79.165 163.567 7.78468 -178.309 -7.4886e-10 2.75141e-09 3.66416e-10 -1.10117e-09 4.60236e-09 7.28379e-10 -7.48864e-10 2.7514e-09 3.66433e-10 -7.73091 5.47488 -0.417314 -7.4886e-10 2.75141e-09 3.66416e-10 -2.90554 0.965183 -0.102902 -7.48867e-10 2.75141e-09 3.66416e-10 -10.2786 0.731801 -0.0259123 -7.48861e-10 2.75142e-09 3.66408e-10 -2.22167 -0.733487 0.20892 -2.03217e-16 0.0 -3.88251e-19 -39.5932 -32.8796 -33.2241 -2.16068 70.8161 2.77602 -8.89682 -13.7919 -21.1424 2.03217e-16 0.0 3.88251e-19 6.88381 -11.363 17.0188 0.277632 45.1517 -1.38516 7.07817 -10.2798 26.0542
-194.536 74.5937 84.0473 170.16 46.7576 177.466 -23.5571 16.4449 9.43743 -0.359942 1.33671 2.07373 -13.6675 6.76683 -7.05721 32.7112 -39.1528 0.903354 -0.0 0.0 0.0 -0.0 0.0 0.0 -5.59579e-13 1.94022e-13 1.32013e-12 85.9569 54.4409 6.80009 -26.9254 -26.092 61.0273 -1.29888 -30.5369 -4.75566 -4.96039e-11 -3.96601e-09 -4.1302e-09 -5.29205e-12 -6.97438e-09 -7.12781e-09 -4.95928e-11 -3.966e-09 -4.13022e-09 7.73091 5.47488 0.417314 -4.96039e-11 -3.96601e-09 -4.13021e-09 2.90554 0.965183 0.102902 -4.96034e-11 -3.96601e-09 -4.1302e-09 10.2786 0.731801 0.0259123 -4.96131e-11 -3.96601e-09 -4.13019e-09 2.22167 -0.733487 -0.20892 -5.59814e-13 1.94004e-13 1.31978e-12 -85.4321 37.7755 1.86652 28.4324 -35.8903 -76.8257 163.82 12.0122 -178.286 -1.10878e-09 4.4251e-09 3.73734e-10 -1.63494e-09 7.35672e-09 8.18782e-10 -1.10878e-09 4.42509e-09 3.73753e-10 -7.73091 5.47488 -0.417314 -1.10878e-09 4.4251e-09 3.73734e-10 -2.90554 0.965183 -0.102902 -1.10878e-09 4.4251e-09 3.73734e-10 -10.2786 0.731801 -0.0259123 -1.10878e-09 4.4251e-09 3.73725e-10 -2.22167 -0.733487 0.20892 -2.03217e-16 0.0 -3.88251e-19 -39.625 -33.2963 -31.9243 -1.81052 68.5783 2.42621 -8.3202 -12.6959 -20.6938 2.03217e-16 0.0 3.88251e-19 6.82194 -10.0147 16.9223 0.226235 43.9536 -1.39636 7.03892 -10.26 25.9796
